<svg xmlns="http://www.w3.org/2000/svg" xml:space="preserve" width="2000" height="1500" data-id="lg_l7EYdwc4aVqxy0HCDl" data-version="1" viewBox="0 0 2000 1500"><path fill="#111" stroke="transparent" d="M0 0h2000v1500H0z"/><g data-padding="20"><g transform="translate(-1651.786 -1253.38)scale(2.5829)"><rect width="560" height="116.39" x="346.167" y="317.275" fill="none" rx="0" ry="0" transform="translate(400.5 400.16)"/><path fill="#fff" d="m806.297 805.51-22.66-69.21-22.56 69.21v-.1q-.61 1.54-1.69 2.52-1.09.98-2.63.98-.83 0-1.6-.15-.77-.16-1.59-.36h.1q-5.87-1.86-4.33-6.6l23.49-71.38q.51-1.64 1.8-2.78 1.29-1.13 3.04-1.34 1.75-.3 3.4-.46 1.64-.15 2.57-.15t2.58.15q1.64.16 3.4.36 1.44.21 2.83 1.55t2.11 2.67q5.77 17.72 11.69 35.69 5.92 17.98 11.69 35.69 1.44 4.74-4.33 6.6-.82.2-1.49.36-.67.15-1.49.15-1.44 0-2.63-.98-1.18-.98-1.7-2.52Zm-14.93-22.25q0 3.3-2.32 5.62-2.32 2.31-5.61 2.31-3.3 0-5.57-2.31-2.26-2.32-2.26-5.62 0-3.29 2.26-5.61 2.27-2.32 5.57-2.32 3.29 0 5.61 2.32t2.32 5.61m55-22.35h19.88q2.68 0 5.56 1.14 2.88 1.13 5.56 2.98h-.1q2.68 1.86 4.12 5.05t1.44 7.31v14.11q0 8.35-5.56 12.47-2.68 1.95-5.51 3.03-2.83 1.09-5.51 1.09h-22.46q-2.67 0-5.51-1.09-2.83-1.08-5.51-3.03-5.56-4.12-5.56-12.47v-6.79q0-4.85 6.08-4.85 6.18 0 6.18 4.85v5.97q0 2.68 1.54 4.84 1.55 2.16 5.36 2.16h17.3q3.81 0 5.36-2.16 1.54-2.16 1.54-4.84v-12.46q0-2.58-1.54-4.79-1.55-2.22-5.36-2.22h-19.88q-5.35 0-11.02-3.91-5.56-4.33-5.56-12.46v-12.26q0-4.12 1.44-7.26t4.12-5.1h-.1q2.68-1.75 5.56-2.89 2.89-1.13 5.56-1.13h22.46q2.68 0 5.56 1.13 2.88 1.14 5.56 2.89h-.1q2.68 1.96 4.12 5.1t1.44 7.26v6.08q0 4.84-6.18 4.84-6.08 0-6.08-4.84v-5.15q0-2.58-1.54-4.74-1.55-2.17-5.36-2.17h-17.3q-3.81 0-5.36 2.17-1.54 2.16-1.54 4.74v10.5q0 2.68 1.54 4.79 1.55 2.11 5.36 2.11m96.19 42.75v-73.03q0-4.94 6.08-4.94 6.18 0 6.18 4.94v73.03q0 4.94-6.18 4.94-6.08 0-6.08-4.94m-31.31-73.03v73.03q0 4.94-6.18 4.94-6.08 0-6.08-4.94v-73.03q0-4.94 6.08-4.94 6.18 0 6.18 4.94m24.1 34.81q0 3.61-2.47 6.08t-6.08 2.47q-3.5 0-5.97-2.47t-2.47-6.08q0-3.6 2.47-6.07t5.97-2.47q3.61 0 6.08 2.47t2.47 6.07m90.03-34.81v60.87q0 8.35-5.56 12.47-2.68 1.95-5.51 3.03-2.83 1.09-5.51 1.09h-22.45q-2.68 0-5.51-1.09-2.84-1.08-5.52-3.03-2.67-2.06-4.12-5.1-1.44-3.04-1.44-7.37v-60.87q0-4.94 6.08-4.94 6.18 0 6.18 4.94v60.05q0 2.68 1.54 4.84 1.55 2.16 5.36 2.16h17.3q3.82 0 5.36-2.16 1.55-2.16 1.55-4.84v-60.05q0-4.94 6.07-4.94 6.18 0 6.18 4.94m43.26 5.98v67.26q0 4.95-6.18 4.95-6.07 0-6.07-4.95v-67.26h-18.03q-3.71 0-3.91-5.25 0-5.15 3.91-5.15h48.31q3.91 0 3.71 5.15 0 5.25-3.71 5.25Zm47.38-10.41h22.46q2.67 0 5.56 1.13 2.88 1.14 5.56 2.89h-.1q2.68 1.96 4.12 5.1t1.44 7.26v48.92q0 8.35-5.56 12.47-2.68 1.95-5.51 3.03-2.84 1.09-5.51 1.09h-22.46q-2.68 0-5.51-1.09-2.83-1.08-5.51-3.03-2.68-2.06-4.12-5.1t-1.44-7.37v-48.92q0-4.12 1.44-7.26t4.12-5.1h-.1q2.68-1.75 5.56-2.89 2.88-1.13 5.56-1.13m2.58 71.48h17.3q3.81 0 5.36-2.16 1.54-2.16 1.54-4.84v-47.17q0-2.58-1.54-4.74-1.55-2.17-5.36-2.17h-17.3q-3.81 0-5.36 2.17-1.54 2.16-1.54 4.74v47.17q0 2.68 1.54 4.84 1.55 2.16 5.36 2.16m71.17-36.77h19.88q2.68 0 5.56 1.14 2.89 1.13 5.56 2.98h-.1q2.68 1.86 4.12 5.05t1.44 7.31v14.11q0 8.35-5.56 12.47-2.68 1.95-5.51 3.03-2.83 1.09-5.51 1.09h-22.45q-2.68 0-5.51-1.09-2.84-1.08-5.52-3.03-5.56-4.12-5.56-12.47v-6.79q0-4.85 6.08-4.85 6.18 0 6.18 4.85v5.97q0 2.68 1.54 4.84 1.55 2.16 5.36 2.16h17.3q3.82 0 5.36-2.16 1.55-2.16 1.55-4.84v-12.46q0-2.58-1.55-4.79-1.54-2.22-5.36-2.22h-19.87q-5.36 0-11.03-3.91-5.56-4.33-5.56-12.46v-12.26q0-4.12 1.44-7.26 1.45-3.14 4.12-5.1h-.1q2.68-1.75 5.56-2.89 2.89-1.13 5.57-1.13h22.45q2.68 0 5.56 1.13 2.89 1.14 5.56 2.89h-.1q2.68 1.96 4.12 5.1t1.44 7.26v6.08q0 4.84-6.18 4.84-6.07 0-6.07-4.84v-5.15q0-2.58-1.55-4.74-1.54-2.17-5.36-2.17h-17.3q-3.81 0-5.36 2.17-1.54 2.16-1.54 4.74v10.5q0 2.68 1.54 4.79 1.55 2.11 5.36 2.11m96.2 42.75v-73.03q0-4.94 6.08-4.94 6.18 0 6.18 4.94v73.03q0 4.94-6.18 4.94-6.08 0-6.08-4.94m-31.31-73.03v73.03q0 4.94-6.18 4.94-6.08 0-6.08-4.94v-73.03q0-4.94 6.08-4.94 6.18 0 6.18 4.94m24.1 34.81q0 3.61-2.47 6.08t-6.08 2.47q-3.5 0-5.97-2.47t-2.47-6.08q0-3.6 2.47-6.07t5.97-2.47q3.61 0 6.08 2.47t2.47 6.07"/></g><path fill="transparent" stroke="transparent" stroke-width="2.679" d="M250 594.643h1500v310.714H250z"/></g></svg>